<?xml version="1.0" encoding="UTF-8" standalone="no"?>
<!-- Created with Inkscape (http://www.inkscape.org/) -->

<svg
   width="720"
   height="720"
   viewBox="0 0 720 720"
   version="1.1"
   id="svg1"
   xml:space="preserve"
   inkscape:version="1.4 (e7c3feb100, 2024-10-09)"
   sodipodi:docname="TR.svg"
   inkscape:export-filename="/home/toast/Documents/Code/Web/website/TR.svg"
   inkscape:export-xdpi="96"
   inkscape:export-ydpi="96"
   xmlns:inkscape="http://www.inkscape.org/namespaces/inkscape"
   xmlns:sodipodi="http://sodipodi.sourceforge.net/DTD/sodipodi-0.dtd"
   xmlns="http://www.w3.org/2000/svg"
   xmlns:svg="http://www.w3.org/2000/svg"><sodipodi:namedview
     id="namedview1"
     pagecolor="#ffffff"
     bordercolor="#000000"
     borderopacity="0.25"
     inkscape:showpageshadow="2"
     inkscape:pageopacity="0.0"
     inkscape:pagecheckerboard="0"
     inkscape:deskcolor="#d1d1d1"
     inkscape:document-units="px"
     inkscape:zoom="1"
     inkscape:cx="195"
     inkscape:cy="497"
     inkscape:window-width="2560"
     inkscape:window-height="1374"
     inkscape:window-x="0"
     inkscape:window-y="0"
     inkscape:window-maximized="1"
     inkscape:current-layer="svg1"
     showguides="true"
     showgrid="true"><inkscape:grid
       id="grid1"
       units="px"
       originx="0"
       originy="0"
       spacingx="1"
       spacingy="1"
       empcolor="#0099e5"
       empopacity="0.30196078"
       color="#0099e5"
       opacity="0.14901961"
       empspacing="5"
       enabled="true"
       visible="true" /><inkscape:page
       x="0"
       y="0"
       width="720"
       height="720"
       id="page2"
       margin="0"
       bleed="0" /></sodipodi:namedview><defs
     id="defs1" /><path
     d="M 230.49739,715.9963 H 3.9907623 V 3.995618 H 322.68029 q 92.18293,0 169.87997,20.257342 77.697,20.271945 125.10541,70.659689 47.40831,50.387721 47.40831,139.113951 a 277.00529,230.41071 0 0 1 -45.93343,137.41979 210.98476,175.49538 0 0 1 -1.47488,1.69419 q -47.40841,53.67391 -125.10541,78.86774 -77.69704,25.19388 -169.87997,25.19388 h -92.1829 z m 0,-563.02822 v 175.26173 h 76.38011 q 67.16184,0 102.05087,-24.09848 34.90663,-24.0985 34.90663,-70.10473 0,-46.00622 -34.90663,-63.53235 a 190.01974,158.05682 0 0 0 -93.27152,-17.45315 408.06306,339.42349 0 0 0 -8.77935,-0.073 z M 459.63779,715.9963 281.85644,427.90984 434.6167,303.03594 712.48235,715.9963 Z"
     id="2"
     style="display:none;fill:#81a1c1;fill-opacity:1;stroke:#81a1c1;stroke-width:8.00697;stroke-opacity:1"
     inkscape:label="2" /><path
     d="M 474.74446,716.09408 H 249.16137 V 161.68268 H 3.9058372 V 3.9058372 H 720 V 161.68268 H 474.74446 Z"
     id="0"
     style="display:inline;fill:#5e81ac;fill-opacity:1;stroke:#5e81ac;stroke-width:7.99206;stroke-opacity:1"
     inkscape:label="0" /><path
     id="path1"
     style="display:inline;fill:#88c0d0;fill-opacity:1;stroke:#88c0d0;stroke-width:8.19154;stroke-opacity:1"
     inkscape:label="2"
     d="M 3.9941701,3.9960938 V 161.68359 H 241.06486 v 0 h 79.94072 c 3.06314,-0.002 6.12622,0.022 9.18871,0.0723 33.88018,-0.88921 67.48408,5.11864 97.62107,17.45312 24.3563,11.68409 36.5361,24.14755 36.5361,54.81836 0,30.67082 -12.1798,54.03785 -36.5361,70.10352 -24.34402,16.06565 -59.94722,24.09961 -106.80978,24.09961 h -71.84362 v 148.97265 h 77.49381 L 474.7442,706.47855 V 161.68359 H 685.55298 C 677.35695,135.64634 664.39039,113.29504 646.28787,94.912109 613.20837,61.32028 569.56181,37.768536 515.34828,24.253906 461.13472,10.749012 401.86642,3.9960938 337.54526,3.9960938 Z"
     sodipodi:nodetypes="cccccccscsccccccscsc" /></svg>
