<?xml version="1.0" encoding="UTF-8" standalone="no"?>
<!-- Created with Inkscape (http://www.inkscape.org/) -->

<svg
   width="720"
   height="720"
   viewBox="0 0 720 720"
   version="1.1"
   id="svg1"
   xml:space="preserve"
   xmlns="http://www.w3.org/2000/svg"
   xmlns:svg="http://www.w3.org/2000/svg"><defs
     id="defs1" /><path
     d="M 230.49739,715.9963 H 3.9907623 V 3.995618 H 322.68029 q 92.18293,0 169.87997,20.257342 77.697,20.271945 125.10541,70.659689 47.40831,50.387721 47.40831,139.113951 a 277.00529,230.41071 0 0 1 -45.93343,137.41979 210.98476,175.49538 0 0 1 -1.47488,1.69419 q -47.40841,53.67391 -125.10541,78.86774 -77.69704,25.19388 -169.87997,25.19388 h -92.1829 z m 0,-563.02822 v 175.26173 h 76.38011 q 67.16184,0 102.05087,-24.09848 34.90663,-24.0985 34.90663,-70.10473 0,-46.00622 -34.90663,-63.53235 a 190.01974,158.05682 0 0 0 -93.27152,-17.45315 408.06306,339.42349 0 0 0 -8.77935,-0.073 z M 459.63779,715.9963 281.85644,427.90984 434.6167,303.03594 712.48235,715.9963 Z"
     id="2"
     style="display:inline;fill:#81a1c1;fill-opacity:1;stroke:#81a1c1;stroke-width:8.00697;stroke-opacity:1" /><path
     d="M 453.76587,716.09408 H 238.23381 V 161.68268 H 3.9058372 V 3.9058372 H 688.09385 V 161.68268 H 453.76587 Z"
     id="0"
     style="display:inline;fill:#5e81ac;fill-opacity:1;stroke:#5e81ac;stroke-width:7.81199;stroke-opacity:1" /></svg>
